{"title":"Uro Chithi (2011)  -  Bengali  -  Original DVD RIP","uid":7255916,"size":734867585,"categoryP":"video","categoryS":"movies","magnet":"?xt=urn:btih:f3fc916d689a8cea1ef63eb18f3e90683d7867ec&amp;dn=Uro+Chithi+%282011%29++-++Bengali++-++Original+DVD+RIP&amp;tr=udp%3A%2F%2Ftracker.openbittorrent.com%3A80&amp;tr=udp%3A%2F%2Fopen.demonii.com%3A1337&amp;tr=udp%3A%2F%2Ftracker.coppersurfer.tk%3A6969&amp;tr=udp%3A%2F%2Fexodus.desync.com%3A6969","seeders":1,"leechers":0,"uploader":null,"files":-1,"time":1336585198,"description":"\n\n\nNote : I'm Far Better Than Any Fake Terrorist Group, This Is Original Ripped Version ! Watch Always Original Print From Real And Trusted Sources, Enjoy !\n\n\n\nScreens :\n\n\n\n &lt;a href=&quot;\nhttp://picturestack.com/576/942/RSFUroChithi2AYe.jpg&quot; rel=&quot;nofollow&quot; target=&quot;_NEW&quot;&gt;\nhttp://picturestack.com/576/942/RSFUroChithi2AYe.jpg&lt;/a&gt;\n &lt;a href=&quot;\nhttp://i.imgur.com/C2FD1.jpg&quot; rel=&quot;nofollow&quot; target=&quot;_NEW&quot;&gt;\nhttp://i.imgur.com/C2FD1.jpg&lt;/a&gt;\n\n\n\n\nExtra Screen Shots :\n\n\n\n &lt;a href=&quot;\nhttp://www.shotpix.com/images/91401625821193649080.jpg&quot; rel=&quot;nofollow&quot; target=&quot;_NEW&quot;&gt;\nhttp://www.shotpix.com/images/91401625821193649080.jpg&lt;/a&gt;\n &lt;a href=&quot;\nhttp://www.shotpix.com/images/89035457330377115912.jpg&quot; rel=&quot;nofollow&quot; target=&quot;_NEW&quot;&gt;\nhttp://www.shotpix.com/images/89035457330377115912.jpg&lt;/a&gt;\n &lt;a href=&quot;\nhttp://www.shotpix.com/images/33684563757601552379.jpg&quot; rel=&quot;nofollow&quot; target=&quot;_NEW&quot;&gt;\nhttp://www.shotpix.com/images/33684563757601552379.jpg&lt;/a&gt;\n\n\n\n\nMedia Info :\n\n\n\n\nFormat                           : AVI\nFormat/Info                      : Audio Video Interleave\nFile size                        : 700 MiB\nDuration                         : 2h 5mn\nOverall bit rate                 : 780 Kbps\n\n\nVideo\nID                               : 0\nFormat                           : MPEG-4 Visual\nFormat settings, GMC             : No warppoints\nFormat settings, Matrix          : Custom\nCodec ID                         : XVID\nCodec ID/Hint                    : XviD\nDuration                         : 2h 5mn\nBit rate                         : 654 Kbps\nWidth                            : 672 pixels\nHeight                           : 288 pixels\nDisplay aspect ratio             : 2.35:1\nFrame rate                       : 25.000 fps\nColor space                      : YUV\nChroma subsampling               : 4:2:0\nBit depth                        : 8 bits\nScan type                        : Progressive\nCompression mode                 : Lossy\nBits/(Pixel*Frame)               : 0.135\nStream size                      : 587 MiB (84%)\n\n\nAudio\nID                               : 1\nFormat                           : MPEG Audio\nFormat version                   : Version 1\nFormat profile                   : Layer 3\nMode                             : Joint stereo\nMode extension                   : MS Stereo\nCodec ID                         : 55\nCodec ID/Hint                    : MP3\nDuration                         : 2h 5mn\nBit rate mode                    : Variable\nBit rate                         : 114 Kbps\nNominal bit rate                 : 128 Kbps\nChannel(s)                       : 2 channels\nSampling rate                    : 48.0 KHz\nCompression mode                 : Lossy\nStream size                      : 102 MiB (15%)\nAlignment                        : Aligned on interleaves\n\n\n\n","torrent":{"xt":"urn:btih:f3fc916d689a8cea1ef63eb18f3e90683d7867ec","amp;dn":"Uro+Chithi+%282011%29++-++Bengali++-++Original+DVD+RIP","amp;tr":["udp%3A%2F%2Ftracker.openbittorrent.com%3A80","udp%3A%2F%2Fopen.demonii.com%3A1337","udp%3A%2F%2Ftracker.coppersurfer.tk%3A6969","udp%3A%2F%2Fexodus.desync.com%3A6969"],"infoHash":"f3fc916d689a8cea1ef63eb18f3e90683d7867ec","infoHashBuffer":{"type":"Buffer","data":[243,252,145,109,104,154,140,234,30,246,62,177,143,62,144,104,61,120,103,236]},"announce":[],"urlList":[]}}